<svg viewBox="0 0 200 200" xmlns="http://www.w3.org/2000/svg">
  <!-- Background circle -->
  <circle cx="100" cy="100" r="95" fill="#065f46" stroke="#dc2626" stroke-width="3"/>
  
  <!-- Holly leaves left -->
  <g transform="translate(50, 60)">
    <ellipse cx="0" cy="0" rx="8" ry="12" fill="#059669" transform="rotate(-30)"/>
    <ellipse cx="5" cy="8" rx="8" ry="12" fill="#10b981" transform="rotate(20)"/>
    <ellipse cx="-5" cy="8" rx="8" ry="12" fill="#059669" transform="rotate(-50)"/>
    <!-- Berries -->
    <circle cx="0" cy="2" r="3" fill="#dc2626"/>
    <circle cx="4" cy="6" r="2.5" fill="#ef4444"/>
    <circle cx="-4" cy="6" r="2.5" fill="#dc2626"/>
  </g>
  
  <!-- Holly leaves right -->
  <g transform="translate(150, 60)">
    <ellipse cx="0" cy="0" rx="8" ry="12" fill="#059669" transform="rotate(30)"/>
    <ellipse cx="-5" cy="8" rx="8" ry="12" fill="#10b981" transform="rotate(-20)"/>
    <ellipse cx="5" cy="8" rx="8" ry="12" fill="#059669" transform="rotate(50)"/>
    <!-- Berries -->
    <circle cx="0" cy="2" r="3" fill="#dc2626"/>
    <circle cx="-4" cy="6" r="2.5" fill="#ef4444"/>
    <circle cx="4" cy="6" r="2.5" fill="#dc2626"/>
  </g>
  
  <!-- Snowflake -->
  <g transform="translate(100, 100)" fill="none" stroke="#fbbf24" stroke-width="2" stroke-linecap="round">
    <line x1="0" y1="-20" x2="0" y2="20"/>
    <line x1="-20" y1="0" x2="20" y2="0"/>
    <line x1="-14" y1="-14" x2="14" y2="14"/>
    <line x1="-14" y1="14" x2="14" y2="-14"/>
    <!-- Small branches -->
    <line x1="0" y1="-20" x2="-6" y2="-14"/>
    <line x1="0" y1="-20" x2="6" y2="-14"/>
    <line x1="-20" y1="0" x2="-14" y2="-6"/>
    <line x1="-20" y1="0" x2="-14" y2="6"/>
    <line x1="20" y1="0" x2="14" y2="-6"/>
    <line x1="20" y1="0" x2="14" y2="6"/>
  </g>
  
  <!-- Text -->
  <text x="100" y="165" font-size="20" font-weight="bold" text-anchor="middle" fill="#fbbf24" font-family="Arial, sans-serif">
    NATAL
  </text>
</svg>
